<svg viewBox="0 0 800 500" preserveAspectRatio="none" xmlns="http://www.w3.org/2000/svg" xmlns:xlink="http://www.w3.org/1999/xlink" width="100%" id="blobSvg">
  <g transform="translate(139.3453712463379, -13.372173309326172)">
    <path class="blob" d="M455.5,289.5Q413,329,402,377.5Q391,426,348,458Q305,490,257,459Q209,428,154,433.5Q99,439,77,391.5Q55,344,53.5,297Q52,250,41.5,197Q31,144,65.5,103Q100,62,152.5,57.5Q205,53,250,52.5Q295,52,331,77.5Q367,103,407.5,129Q448,155,473,202.5Q498,250,455.5,289.5Z" fill="#d1d8e0"></path>
  </g>
</svg>