<?xml version="1.0" standalone="no"?>
<!DOCTYPE svg PUBLIC "-//W3C//DTD SVG 1.1//EN" "http://www.w3.org/Graphics/SVG/1.1/DTD/svg11.dtd" >
<svg xmlns="http://www.w3.org/2000/svg" xmlns:xlink="http://www.w3.org/1999/xlink" version="1.1" viewBox="-30 -210 2570 2248">
  <g transform="matrix(1 0 0 -1 0 1638)">
   <path fill="currentColor"
d="M933 158l317 318q40 -38 57 -70.5t28 -55.5l-297 -297q-114 -114 -283 -114q-56 0 -110 14q-52 15 -52 37q0 19 59 19q78 11 148 48.5t133 100.5zM1971 1640q0 27 -66 45q-63 18 -135 18q-193 0 -330 -137l-433 -434q76 -12 179 -72l380 380q88 88 185 133t158 45
q62 0 62 22zM752 -195q187 0 320 133l415 416q-10 39 -31.5 85t-56.5 100t-78.5 105.5t-95.5 102.5t-103 92.5t-103 74.5q-52 32 -94.5 51.5t-76.5 27.5l-415 -416q-132 -134 -132 -320q0 -191 132 -319q67 -65 146 -98.5t173 -34.5zM2357 1214q0 -125 -48 -244t-142 -214
l-531 -531q-39 -37 -92 -37l-361 -361q-87 -87 -197 -132.5t-234 -45.5q-163 0 -302 83q-141 82 -225 225q-82 144 -82 301q0 126 45 233t134 197l353 354q0 53 36 89l540 542q92 92 209.5 140.5t249.5 48.5q172 0 324 -88q148 -87 235 -238q88 -152 88 -322z" />
  </g>

</svg>
