<svg viewBox="0 0 800 500" preserveAspectRatio="none" xmlns="http://www.w3.org/2000/svg" xmlns:xlink="http://www.w3.org/1999/xlink" width="100%" id="blobSvg">
  <g transform="translate(139.3453712463379, -13.372173309326172)">
    <path class="blob" d="M479.5,300.5Q460,351,429.5,393.5Q399,436,351.5,461.5Q304,487,251,482Q198,477,151.5,454.5Q105,432,68.5,393.5Q32,355,26,302.5Q20,250,30,199.5Q40,149,70.5,106Q101,63,148.5,37.5Q196,12,249,16.5Q302,21,348,45Q394,69,426,109.5Q458,150,478.5,200Q499,250,479.5,300.5Z" fill="#d1d8e0"></path>
  </g>
</svg>